<svg width="503.955078" height="274.070312" viewBox="0 0 503.955 274.07" fill="none" xmlns="http://www.w3.org/2000/svg" xmlns:xlink="http://www.w3.org/1999/xlink">
	<desc>
			Created with Pixso.
	</desc>
	<defs>
		<filter id="filter_745_4262_dd" x="0.000000" y="0.000000" width="503.955078" height="274.070312" filterUnits="userSpaceOnUse" color-interpolation-filters="sRGB">
			<feFlood flood-opacity="0" result="BackgroundImageFix"/>
			<feColorMatrix in="SourceAlpha" type="matrix" values="0 0 0 0 0 0 0 0 0 0 0 0 0 0 0 0 0 0 127 0" result="hardAlpha"/>
			<feOffset dx="7.96053" dy="7.96053"/>
			<feGaussianBlur stdDeviation="11.3722"/>
			<feComposite in2="hardAlpha" operator="out" k2="-1" k3="1"/>
			<feColorMatrix type="matrix" values="0 0 0 0 0.82353 0 0 0 0 0.8549 0 0 0 0 0.8902 0 0 0 0.6 0"/>
			<feBlend mode="normal" in2="BackgroundImageFix" result="effect_dropShadow_1"/>
			<feColorMatrix in="SourceAlpha" type="matrix" values="0 0 0 0 0 0 0 0 0 0 0 0 0 0 0 0 0 0 127 0" result="hardAlpha"/>
			<feOffset dx="5.68609" dy="5.68609"/>
			<feGaussianBlur stdDeviation="4.92794"/>
			<feComposite in2="hardAlpha" operator="out" k2="-1" k3="1"/>
			<feColorMatrix type="matrix" values="0 0 0 0 0.82353 0 0 0 0 0.8549 0 0 0 0 0.8902 0 0 0 0.3 0"/>
			<feBlend mode="normal" in2="effect_dropShadow_1" result="effect_dropShadow_2"/>
			<feBlend mode="normal" in="SourceGraphic" in2="effect_dropShadow_2" result="shape"/>
		</filter>
		<clipPath id="clip745_4271">
			<rect id="Frame 142" width="229.718002" height="252.462357" transform="translate(44.353516 10.234375)" fill="white" fill-opacity="0"/>
		</clipPath>
		<linearGradient x1="251.713821" y1="187.594406" x2="251.082642" y2="45.264603" id="paint_linear_745_4272_0" gradientUnits="userSpaceOnUse">
			<stop offset="0.000100" stop-color="#39C7EC" stop-opacity="0.000000"/>
			<stop offset="0.536458" stop-color="#39C7EC"/>
			<stop offset="1.000000" stop-color="#0050EC"/>
		</linearGradient>
		<linearGradient x1="387.219299" y1="63.907837" x2="79.948471" y2="138.110413" id="paint_linear_745_4273_0" gradientUnits="userSpaceOnUse">
			<stop stop-color="#0056FE"/>
			<stop offset="1.000000" stop-color="#19BFEA"/>
		</linearGradient>
		<linearGradient x1="231.919922" y1="99.619751" x2="230.973633" y2="187.513397" id="paint_linear_745_4274_0" gradientUnits="userSpaceOnUse">
			<stop stop-color="#39C7EC"/>
			<stop offset="0.000100" stop-color="#39C7EC"/>
			<stop offset="1.000000" stop-color="#0050EC"/>
		</linearGradient>
		<linearGradient x1="160.519958" y1="42.710941" x2="185.962860" y2="62.908524" id="paint_linear_745_4277_0" gradientUnits="userSpaceOnUse">
			<stop stop-color="#0050EC"/>
		</linearGradient>
	</defs>
	<g filter="url(#filter_745_4262_dd)">
		<rect id="Rectangle 587" x="26.156250" y="26.156250" rx="12.623486" width="266.108978" height="205.836426" fill="#EFF1F7" fill-opacity="1.000000"/>
		<g opacity="0.100000">
			<path id="Vector 34" d="M65.96 114.85L277.48 114.85" stroke="#7C8DB5" stroke-opacity="1.000000" stroke-width="0.631174" stroke-dasharray="2.5247 2.5247"/>
		</g>
		<g opacity="0.100000">
			<path id="Vector 77" d="M65.96 86.42L277.48 86.42" stroke="#7C8DB5" stroke-opacity="1.000000" stroke-width="0.631174" stroke-dasharray="2.5247 2.5247"/>
		</g>
		<g opacity="0.100000">
			<path id="Vector 35" d="M65.96 142.15L277.48 142.15" stroke="#7C8DB5" stroke-opacity="1.000000" stroke-width="0.631174" stroke-dasharray="2.5247 2.5247"/>
		</g>
		<g opacity="0.100000">
			<path id="Vector 36" d="M65.96 170.58L277.48 170.58" stroke="#7C8DB5" stroke-opacity="1.000000" stroke-width="0.631174" stroke-dasharray="2.5247 2.5247"/>
		</g>
		<g opacity="0.100000">
			<path id="Vector 78" d="M64.82 195.6L276.34 195.6" stroke="#7C8DB5" stroke-opacity="1.000000" stroke-width="0.631174" stroke-dasharray="2.5247 2.5247"/>
		</g>
		<g clip-path="url(#clip745_4271)">
			<g opacity="0.200000">
				<path id="Vector 76" d="M397.5 102.15C397.5 102.15 373.59 83.48 354.5 116.14C341.66 134.26 319.44 101.71 300.93 111.19C282.41 120.67 282.1 173.53 263.24 129.63C239.32 73.91 219.46 93.1 213.65 118.57C204.11 160.39 173.92 158.55 148.45 121.53C128.87 93.08 120.47 130.44 107.7 139.96C82.78 158.55 73.67 106.41 67.76 84.5L67.76 187.11L397.5 187.11L397.5 102.15Z" fill="url(#paint_linear_745_4272_0)" fill-opacity="1.000000" fill-rule="evenodd"/>
			</g>
			<path id="Vector 75" d="M396.6 102.76C396.6 102.76 372.7 84.1 353.63 116.73C340.8 134.84 318.61 102.31 300.1 111.79C281.6 121.26 280.38 173.77 261.55 129.91C237.65 74.24 218.78 93.31 212.98 118.76C203.45 160.54 173.21 159.1 147.77 122.12C128.2 93.69 119.81 131.02 107.05 140.53C82.15 159.11 73.05 107.02 67.15 85.12" stroke="url(#paint_linear_745_4273_0)" stroke-opacity="1.000000" stroke-width="1.577936" stroke-linecap="round"/>
		</g>
		<g opacity="0.200000">
			<path id="Vector 17" d="M231.92 191.03L231.92 95.09" stroke="url(#paint_linear_745_4274_0)" stroke-opacity="1.000000" stroke-width="0.946761"/>
		</g>
		<circle id="Ellipse 7" cx="231.917969" cy="95.097656" r="5.680568" fill="#0050EC" fill-opacity="1.000000"/>
		<rect id="Rectangle 125" x="159.210938" y="42.710938" rx="10.098789" width="27.771667" height="20.197578" fill="url(#paint_linear_745_4277_0)" fill-opacity="1.000000"/>
		<rect id="Rectangle 126" x="193.296875" y="42.710938" rx="10.098789" width="27.771667" height="20.197578" fill="#F2F4F8" fill-opacity="1.000000"/>
		<g opacity="0.000000" style="mix-blend-mode:normal">
			<path id="Fill 1" d="M210.13 46.49L204.23 46.49C202.08 46.49 200.87 47.71 200.87 49.86L200.87 55.75C200.87 57.9 202.08 59.12 204.23 59.12L210.13 59.12C212.28 59.12 213.49 57.9 213.49 55.75L213.49 49.86C213.49 47.71 212.28 46.49 210.13 46.49Z" fill="#0A043C" fill-opacity="1.000000" fill-rule="nonzero"/>
		</g>
		<path id="Fill 4" d="M204.26 51.15C203.97 51.15 203.73 51.38 203.73 51.67L203.73 56.01C203.73 56.3 203.97 56.53 204.26 56.53C204.55 56.53 204.78 56.3 204.78 56.01L204.78 51.67C204.78 51.38 204.55 51.15 204.26 51.15Z" fill="#0A043C" fill-opacity="1.000000" fill-rule="nonzero"/>
		<path id="Fill 6" d="M207.2 49.08C206.92 49.08 206.68 49.31 206.68 49.6L206.68 56.01C206.68 56.3 206.92 56.53 207.2 56.53C207.49 56.53 207.73 56.3 207.73 56.01L207.73 49.6C207.73 49.31 207.49 49.08 207.2 49.08Z" fill="#0A043C" fill-opacity="1.000000" fill-rule="nonzero"/>
		<path id="Fill 8" d="M210.11 53.43C209.82 53.43 209.58 53.67 209.58 53.96L209.58 56.01C209.58 56.3 209.82 56.53 210.1 56.53C210.39 56.53 210.63 56.3 210.63 56.01L210.63 53.96C210.63 53.67 210.39 53.43 210.11 53.43Z" fill="#0A043C" fill-opacity="1.000000" fill-rule="nonzero"/>
		<path id="Vector" d="M168.68 53.08L170.36 53.08L171.75 49.99C171.79 49.89 171.87 49.79 171.97 49.73C172.07 49.67 172.18 49.64 172.29 49.65C172.4 49.66 172.51 49.7 172.6 49.78C172.69 49.85 172.75 49.95 172.79 50.07L174.47 55.54C174.5 55.65 174.56 55.75 174.64 55.83C174.73 55.9 174.83 55.94 174.94 55.96C175.05 55.97 175.16 55.95 175.25 55.9C175.35 55.84 175.43 55.76 175.48 55.66L177.1 52.72L178.78 52.72" stroke="#FFFFFF" stroke-opacity="1.000000" stroke-width="0.946761" stroke-linejoin="round" stroke-linecap="round"/>
		<rect id="Rectangle 590" x="227.699219" y="43.027344" rx="6.311743" width="49.862770" height="18.304054" stroke="#7C8DB5" stroke-opacity="1.000000" stroke-width="0.631174"/>
		<path id="Неделя" d="M237.11 54.75L237.82 54.75L237.82 49.37L237.11 49.37L237.11 51.69L234.39 51.69L234.39 49.37L233.68 49.37L233.68 54.75L234.39 54.75L234.39 52.27L237.11 52.27L237.11 54.75ZM239.85 54.6Q240.26 54.83 240.79 54.83Q241.39 54.83 241.81 54.56Q242.09 54.37 242.3 54.06L241.88 53.73Q241.71 53.95 241.5 54.09Q241.47 54.1 241.44 54.12Q241.19 54.27 240.82 54.27Q240.54 54.27 240.31 54.16Q240.13 54.07 239.98 53.91Q239.94 53.85 239.89 53.8Q239.65 53.46 239.64 52.95L242.35 52.95L242.35 52.67Q242.35 51.71 241.92 51.19Q241.79 51.04 241.63 50.93Q241.25 50.68 240.7 50.68Q240.49 50.68 240.3 50.73Q240.05 50.79 239.82 50.94Q239.7 51.02 239.61 51.1Q239.35 51.34 239.18 51.68Q238.95 52.14 238.95 52.74L238.95 52.86Q238.95 53.6 239.3 54.1Q239.37 54.2 239.46 54.29Q239.64 54.48 239.85 54.6ZM248.74 54.6Q249.14 54.83 249.67 54.83Q250.27 54.83 250.69 54.56Q250.98 54.37 251.18 54.06L250.76 53.73Q250.6 53.95 250.38 54.09Q250.36 54.1 250.32 54.12Q250.07 54.27 249.71 54.27Q249.43 54.27 249.2 54.16Q249.02 54.07 248.87 53.91Q248.82 53.85 248.78 53.8Q248.54 53.46 248.52 52.95L251.23 52.95L251.23 52.67Q251.23 51.71 250.8 51.19Q250.67 51.04 250.52 50.93Q250.14 50.68 249.59 50.68Q249.38 50.68 249.18 50.73Q248.93 50.79 248.7 50.94Q248.59 51.02 248.49 51.1Q248.23 51.34 248.07 51.68Q247.84 52.14 247.84 52.74L247.84 52.86Q247.84 53.6 248.19 54.1Q248.26 54.2 248.35 54.29Q248.53 54.48 248.74 54.6ZM243.49 53.9L243.26 54.2L242.95 54.2L242.94 55.93L243.63 55.93L243.63 54.75L246.42 54.75L246.42 55.93L247.1 55.93L247.1 54.2L246.59 54.2L246.59 50.75L244.01 50.75L243.95 52.35Q243.89 53.39 243.49 53.9ZM255.46 54.75L255.46 50.75L252.75 50.75L252.68 52.47Q252.64 53.4 252.5 53.75Q252.41 53.97 252.25 54.06Q252.15 54.12 252.02 54.14L251.82 54.15L251.82 54.75L252.1 54.75Q252.5 54.74 252.76 54.54Q252.89 54.44 252.98 54.29Q253.26 53.85 253.33 52.82L253.41 51.32L254.77 51.32L254.77 54.75L255.46 54.75ZM259.77 54.75L259.77 50.75L258.08 50.75Q257.4 50.76 256.99 51.09Q256.8 51.24 256.7 51.44Q256.57 51.68 256.57 51.97Q256.57 52.26 256.69 52.5Q256.73 52.58 256.78 52.66Q256.81 52.7 256.85 52.74Q257.04 52.97 257.37 53.09L256.36 54.75L257.1 54.75L258.05 53.2L259.08 53.2L259.08 54.75L259.77 54.75ZM240.32 51.32Q240.49 51.24 240.7 51.24Q240.99 51.24 241.2 51.37Q241.3 51.43 241.38 51.53Q241.63 51.81 241.66 52.34L241.66 52.39L239.66 52.39Q239.73 51.84 240.01 51.54Q240.15 51.39 240.32 51.32ZM249.2 51.32Q249.38 51.24 249.59 51.24Q249.88 51.24 250.08 51.37Q250.19 51.43 250.27 51.53Q250.52 51.81 250.55 52.34L250.55 52.39L248.55 52.39Q248.61 51.84 248.89 51.54Q249.03 51.39 249.2 51.32ZM257.34 52.3Q257.26 52.16 257.26 51.98Q257.26 51.82 257.33 51.69Q257.38 51.58 257.49 51.49Q257.71 51.31 258.09 51.31L259.08 51.31L259.08 52.64L257.99 52.64Q257.7 52.63 257.51 52.49Q257.49 52.47 257.46 52.45Q257.39 52.39 257.34 52.3ZM245.91 54.2L244.07 54.2Q244.57 53.53 244.63 52.34L244.67 51.39L245.91 51.39L245.91 54.2Z" fill="#7C8DB5" fill-opacity="1.000000" fill-rule="evenodd"/>
		<path id="Vector 79" d="M268.09 51.86L269.67 53.44L271.25 51.86" stroke="#7C8DB5" stroke-opacity="1.000000" stroke-width="0.631174" stroke-linejoin="round" stroke-linecap="round"/>
		<g opacity="0.000000" style="mix-blend-mode:normal">
			<path id="Fill 1" d="M233.56 46.44L229.54 46.44C228.07 46.44 227.24 47.66 227.24 49.8L227.24 55.67C227.24 57.82 228.07 59.03 229.54 59.03L233.56 59.03C235.02 59.03 235.85 57.82 235.85 55.67L235.85 49.8C235.85 47.66 235.02 46.44 233.56 46.44Z" fill="#0A043C" fill-opacity="1.000000" fill-rule="nonzero"/>
		</g>
		<rect id="Iconly/Bulk/Chart" width="10.334328" height="15.107260" transform="translate(226.382812 45.183594)" fill="#FFFFFF" fill-opacity="0"/>
		<path id="APR 05" d="" fill="#000000" fill-opacity="1.000000" fill-rule="evenodd"/>
		<path id="APR 05" d="M66.24 219.77Q66.67 219.18 66.67 218.02L66.67 217.09Q66.66 215.96 66.23 215.39Q66.12 215.26 65.99 215.16Q65.58 214.83 64.91 214.83Q64.24 214.83 63.83 215.15Q63.69 215.26 63.58 215.41Q63.15 215.99 63.15 217.15L63.15 218.08Q63.16 219.21 63.6 219.79Q63.72 219.94 63.87 220.06Q64.28 220.36 64.92 220.36Q65.56 220.36 65.97 220.05Q66.12 219.93 66.24 219.77ZM68.3 214.9L68.01 217.62L68.73 217.79Q68.93 217.61 69.1 217.54Q69.27 217.48 69.51 217.48Q69.84 217.48 70.06 217.63Q70.15 217.68 70.22 217.76Q70.23 217.78 70.25 217.8Q70.47 218.08 70.47 218.54Q70.47 219.05 70.24 219.35Q70.15 219.46 70.04 219.53Q69.85 219.64 69.59 219.64Q69.29 219.64 69.08 219.5Q69.04 219.47 69 219.43Q68.99 219.43 68.98 219.42Q68.76 219.21 68.71 218.83L67.85 218.83Q67.87 219.26 68.06 219.58Q68.19 219.78 68.37 219.94Q68.48 220.03 68.6 220.11Q69.02 220.36 69.6 220.36Q70.26 220.36 70.7 220.05Q70.8 219.97 70.9 219.87Q70.98 219.79 71.05 219.69Q71.37 219.24 71.37 218.57Q71.37 217.78 70.99 217.29Q70.96 217.27 70.94 217.24Q70.83 217.11 70.69 217.02Q70.31 216.75 69.75 216.75Q69.36 216.75 69.04 216.89Q68.97 216.93 68.9 216.97L69.05 215.68L71.2 215.68L71.2 214.9L68.3 214.9ZM65.57 215.9Q65.77 216.26 65.77 217.01L65.77 218.23Q65.76 218.96 65.56 219.3Q65.47 219.44 65.34 219.53Q65.17 219.64 64.92 219.64Q64.67 219.64 64.49 219.53Q64.35 219.44 64.25 219.27Q64.04 218.9 64.04 218.15L64.04 216.93Q64.06 216.22 64.26 215.88Q64.34 215.76 64.46 215.68Q64.64 215.55 64.91 215.55Q65.18 215.55 65.36 215.68Q65.48 215.76 65.57 215.9Z" fill="#0F3F62" fill-opacity="1.000000" fill-rule="evenodd"/>
		<path id="APR 05" d="M63.46 211.29L63.88 210.12L65.76 210.12L66.19 211.29L66.79 211.29L65.08 206.8L64.56 206.8L62.85 211.29L63.46 211.29ZM68.24 211.29L68.24 209.53L69.3 209.53Q70.06 209.53 70.47 209.18Q70.57 209.09 70.64 208.99Q70.88 208.67 70.88 208.17Q70.88 207.77 70.7 207.47Q70.61 207.31 70.46 207.18Q70.45 207.16 70.43 207.15Q70.02 206.8 69.31 206.8L67.65 206.8L67.65 211.29L68.24 211.29ZM72.48 209.47L73.53 209.47L74.51 211.29L75.14 211.29L75.14 211.25L74.09 209.34Q74.43 209.21 74.64 208.97Q74.68 208.93 74.72 208.88Q74.78 208.79 74.83 208.7Q74.94 208.45 74.94 208.15Q74.94 207.63 74.69 207.31Q74.62 207.22 74.53 207.14Q74.13 206.8 73.37 206.8L71.88 206.8L71.88 211.29L72.48 211.29L72.48 209.47ZM69.31 209.05L68.24 209.05L68.24 207.29L69.34 207.29Q69.74 207.29 69.99 207.49Q70.01 207.51 70.03 207.54Q70.11 207.6 70.16 207.68Q70.29 207.89 70.29 208.18Q70.29 208.52 70.12 208.73Q70.08 208.78 70.03 208.82Q69.78 209.05 69.31 209.05ZM73.39 208.99L72.48 208.99L72.48 207.29L73.38 207.29Q73.85 207.29 74.1 207.51Q74.15 207.55 74.18 207.6Q74.35 207.81 74.35 208.15Q74.35 208.39 74.24 208.58Q74.18 208.68 74.09 208.76Q74.07 208.77 74.06 208.79Q73.8 208.99 73.39 208.99ZM65.58 209.63L64.06 209.63L64.82 207.53L65.58 209.63Z" fill="#7C8DB5" fill-opacity="1.000000" fill-rule="evenodd"/>
		<path id="APR 06" d="" fill="#000000" fill-opacity="1.000000" fill-rule="evenodd"/>
		<path id="APR 06" d="M113.66 219.77Q114.1 219.18 114.1 218.02L114.1 217.09Q114.09 215.96 113.65 215.39Q113.55 215.26 113.42 215.16Q113.01 214.83 112.33 214.83Q111.67 214.83 111.26 215.15Q111.12 215.26 111.01 215.41Q110.57 215.99 110.57 217.15L110.57 218.08Q110.58 219.21 111.03 219.79Q111.15 219.94 111.3 220.06Q111.71 220.36 112.34 220.36Q112.99 220.36 113.39 220.05Q113.54 219.93 113.66 219.77ZM117.99 215.62L117.99 214.88L117.9 214.88Q116.9 214.88 116.26 215.36Q116.07 215.5 115.92 215.68Q115.23 216.48 115.23 217.9L115.23 218.2Q115.23 219.09 115.65 219.67Q115.69 219.72 115.73 219.77Q115.95 220.03 116.24 220.18Q116.59 220.36 117.03 220.36Q117.56 220.36 117.96 220.13Q118.14 220.02 118.3 219.85Q118.41 219.74 118.49 219.61Q118.78 219.16 118.78 218.52Q118.78 217.8 118.44 217.32Q118.41 217.27 118.37 217.22Q118.22 217.04 118.02 216.92Q117.69 216.72 117.24 216.72Q116.83 216.72 116.51 216.89Q116.31 217 116.14 217.18Q116.21 216.52 116.57 216.13Q116.62 216.08 116.68 216.03Q116.71 216 116.76 215.97Q117.19 215.63 117.88 215.62L117.99 215.62ZM112.99 215.9Q113.2 216.26 113.2 217.01L113.2 218.23Q113.19 218.96 112.98 219.3Q112.89 219.44 112.77 219.53Q112.59 219.64 112.34 219.64Q112.09 219.64 111.91 219.53Q111.77 219.44 111.68 219.27Q111.47 218.9 111.47 218.15L111.47 216.93Q111.48 216.22 111.69 215.88Q111.77 215.76 111.88 215.68Q112.06 215.55 112.33 215.55Q112.6 215.55 112.79 215.68Q112.91 215.76 112.99 215.9ZM116.75 217.49Q116.88 217.45 117.03 217.45Q117.23 217.45 117.39 217.53Q117.54 217.6 117.66 217.75Q117.66 217.75 117.66 217.76Q117.89 218.06 117.89 218.55Q117.89 219.04 117.66 219.34Q117.56 219.47 117.43 219.54Q117.25 219.64 117.03 219.64Q116.87 219.64 116.73 219.58Q116.53 219.49 116.38 219.28Q116.12 218.93 116.12 218.33L116.12 218.06Q116.19 217.91 116.28 217.79Q116.37 217.69 116.48 217.61Q116.61 217.53 116.75 217.49Z" fill="#0F3F62" fill-opacity="1.000000" fill-rule="evenodd"/>
		<path id="APR 06" d="M110.88 211.29L111.3 210.12L113.18 210.12L113.61 211.29L114.22 211.29L112.5 206.8L111.98 206.8L110.27 211.29L110.88 211.29ZM115.67 211.29L115.67 209.53L116.72 209.53Q117.49 209.53 117.89 209.18Q117.99 209.09 118.06 208.99Q118.3 208.67 118.3 208.17Q118.3 207.77 118.13 207.47Q118.03 207.31 117.88 207.18Q117.87 207.16 117.86 207.15Q117.44 206.8 116.73 206.8L115.08 206.8L115.08 211.29L115.67 211.29ZM119.9 209.47L120.96 209.47L121.93 211.29L122.56 211.29L122.56 211.25L121.51 209.34Q121.85 209.21 122.07 208.97Q122.11 208.93 122.14 208.88Q122.2 208.79 122.25 208.7Q122.37 208.45 122.37 208.15Q122.37 207.63 122.12 207.31Q122.05 207.22 121.96 207.14Q121.55 206.8 120.79 206.8L119.31 206.8L119.31 211.29L119.9 211.29L119.9 209.47ZM116.73 209.05L115.67 209.05L115.67 207.29L116.76 207.29Q117.17 207.29 117.41 207.49Q117.44 207.51 117.46 207.54Q117.53 207.6 117.58 207.68Q117.71 207.89 117.71 208.18Q117.71 208.52 117.54 208.73Q117.51 208.78 117.46 208.82Q117.21 209.05 116.73 209.05ZM120.81 208.99L119.9 208.99L119.9 207.29L120.81 207.29Q121.28 207.29 121.52 207.51Q121.57 207.55 121.61 207.6Q121.77 207.81 121.77 208.15Q121.77 208.39 121.66 208.58Q121.6 208.68 121.51 208.76Q121.5 208.77 121.48 208.79Q121.23 208.99 120.81 208.99ZM113.01 209.63L111.48 209.63L112.24 207.53L113.01 209.63Z" fill="#7C8DB5" fill-opacity="1.000000" fill-rule="evenodd"/>
		<path id="APR 07" d="M161.02 219.78Q161.43 219.19 161.43 217.99L161.43 217.1Q161.42 215.94 161.01 215.38Q160.91 215.25 160.79 215.15Q160.39 214.83 159.73 214.83Q159.08 214.83 158.68 215.15Q158.55 215.26 158.44 215.4Q158.03 215.98 158.03 217.17L158.03 218.08Q158.04 219.22 158.46 219.79Q158.57 219.94 158.71 220.05Q159.1 220.36 159.74 220.36Q160.37 220.36 160.76 220.05Q160.91 219.94 161.02 219.78ZM163.85 220.29L166.08 215.29L166.08 214.9L162.45 214.9L162.45 215.46L165.36 215.46L163.14 220.29L163.85 220.29ZM160.5 215.79Q160.74 216.19 160.74 217.05L160.74 218.17Q160.73 219.02 160.49 219.41Q160.39 219.57 160.25 219.66Q160.04 219.8 159.74 219.8Q159.45 219.8 159.24 219.67Q159.08 219.57 158.97 219.39Q158.71 218.97 158.71 218.1L158.71 217Q158.72 216.18 158.96 215.79Q159.05 215.64 159.18 215.55Q159.4 215.39 159.73 215.39Q160.06 215.39 160.28 215.55Q160.41 215.64 160.5 215.79Z" fill="#000000" fill-opacity="1.000000" fill-rule="evenodd"/>
		<path id="APR 07" d="M158.3 211.29L158.72 210.12L160.6 210.12L161.03 211.29L161.64 211.29L159.92 206.8L159.4 206.8L157.69 211.29L158.3 211.29ZM163.09 211.29L163.09 209.53L164.14 209.53Q164.91 209.53 165.31 209.18Q165.41 209.09 165.48 208.99Q165.72 208.67 165.72 208.17Q165.72 207.77 165.55 207.47Q165.45 207.31 165.3 207.18Q165.29 207.16 165.28 207.15Q164.86 206.8 164.15 206.8L162.5 206.8L162.5 211.29L163.09 211.29ZM167.32 209.47L168.38 209.47L169.35 211.29L169.98 211.29L169.98 211.25L168.93 209.34Q169.27 209.21 169.49 208.97Q169.53 208.93 169.56 208.88Q169.62 208.79 169.67 208.7Q169.79 208.45 169.79 208.15Q169.79 207.63 169.54 207.31Q169.47 207.22 169.38 207.14Q168.97 206.8 168.21 206.8L166.73 206.8L166.73 211.29L167.32 211.29L167.32 209.47ZM164.15 209.05L163.09 209.05L163.09 207.29L164.18 207.29Q164.59 207.29 164.83 207.49Q164.85 207.51 164.88 207.54Q164.95 207.6 165 207.68Q165.13 207.89 165.13 208.18Q165.13 208.52 164.96 208.73Q164.93 208.78 164.88 208.82Q164.63 209.05 164.15 209.05ZM168.23 208.99L167.32 208.99L167.32 207.29L168.23 207.29Q168.7 207.29 168.94 207.51Q168.99 207.55 169.03 207.6Q169.19 207.81 169.19 208.15Q169.19 208.39 169.08 208.58Q169.02 208.68 168.93 208.76Q168.92 208.77 168.9 208.79Q168.65 208.99 168.23 208.99ZM160.43 209.63L158.9 209.63L159.66 207.53L160.43 209.63Z" fill="#7C8DB5" fill-opacity="1.000000" fill-rule="evenodd"/>
		<path id="APR 08" d="M208.44 219.78Q208.85 219.19 208.85 217.99L208.85 217.1Q208.84 215.94 208.43 215.38Q208.33 215.25 208.21 215.15Q207.82 214.83 207.15 214.83Q206.5 214.83 206.1 215.15Q205.97 215.26 205.86 215.4Q205.45 215.98 205.45 217.17L205.45 218.08Q205.47 219.22 205.88 219.79Q205.99 219.94 206.14 220.05Q206.53 220.36 207.16 220.36Q207.79 220.36 208.18 220.05Q208.33 219.94 208.44 219.78ZM213.2 216.81Q213.3 216.58 213.3 216.31Q213.3 215.83 213.08 215.49Q212.99 215.34 212.86 215.23Q212.78 215.16 212.7 215.1Q212.3 214.83 211.71 214.83Q211.11 214.83 210.71 215.11Q210.63 215.16 210.56 215.23Q210.43 215.34 210.34 215.48Q210.12 215.82 210.12 216.31Q210.12 216.58 210.22 216.81Q210.26 216.92 210.33 217.02Q210.39 217.11 210.46 217.19Q210.64 217.38 210.9 217.51Q210.58 217.65 210.37 217.88Q210.3 217.95 210.24 218.05Q210.14 218.19 210.08 218.36Q210 218.58 210 218.83Q210 219.29 210.2 219.62Q210.3 219.8 210.46 219.94Q210.51 219.99 210.57 220.03Q211.02 220.36 211.71 220.36Q212.39 220.36 212.83 220.04Q212.89 220 212.95 219.95Q213.11 219.8 213.22 219.63Q213.42 219.29 213.42 218.83Q213.42 218.57 213.34 218.35Q213.28 218.19 213.18 218.05Q213.11 217.96 213.04 217.88Q212.82 217.65 212.51 217.52Q212.77 217.39 212.96 217.19Q213.03 217.11 213.08 217.02Q213.15 216.92 213.2 216.81ZM207.92 215.79Q208.17 216.19 208.17 217.05L208.17 218.17Q208.16 219.02 207.91 219.41Q207.81 219.57 207.67 219.66Q207.46 219.8 207.16 219.8Q206.87 219.8 206.67 219.67Q206.5 219.57 206.39 219.39Q206.14 218.97 206.14 218.1L206.14 217Q206.14 216.18 206.38 215.79Q206.47 215.64 206.6 215.55Q206.82 215.39 207.15 215.39Q207.48 215.39 207.7 215.55Q207.83 215.64 207.92 215.79ZM211.21 215.52Q211.42 215.39 211.71 215.39Q211.95 215.39 212.15 215.49Q212.26 215.55 212.36 215.65Q212.43 215.72 212.48 215.81Q212.61 216.03 212.61 216.32Q212.61 216.63 212.47 216.85Q212.43 216.92 212.37 216.98Q212.3 217.05 212.23 217.1Q212.01 217.24 211.71 217.24Q211.41 217.24 211.19 217.1Q211.12 217.05 211.05 216.98Q210.99 216.92 210.95 216.85Q210.81 216.63 210.81 216.32Q210.81 215.97 210.97 215.74Q211.01 215.69 211.06 215.64Q211.13 215.57 211.21 215.52ZM212.6 218.28Q212.74 218.51 212.74 218.82Q212.74 219.17 212.57 219.41Q212.52 219.48 212.46 219.54Q212.43 219.57 212.4 219.6Q212.13 219.8 211.71 219.8Q211.27 219.8 211.01 219.59Q210.98 219.57 210.95 219.54Q210.9 219.49 210.86 219.43Q210.68 219.19 210.68 218.82Q210.68 218.48 210.84 218.23Q210.89 218.15 210.96 218.08Q211.03 218.01 211.11 217.96Q211.35 217.8 211.7 217.8Q212.04 217.8 212.28 217.95Q212.37 218 212.45 218.08Q212.54 218.17 212.6 218.28Z" fill="#000000" fill-opacity="1.000000" fill-rule="evenodd"/>
		<path id="APR 08" d="M205.72 211.29L206.15 210.12L208.03 210.12L208.45 211.29L209.06 211.29L207.34 206.8L206.83 206.8L205.11 211.29L205.72 211.29ZM210.51 211.29L210.51 209.53L211.57 209.53Q212.33 209.53 212.74 209.18Q212.83 209.09 212.91 208.99Q213.14 208.67 213.14 208.17Q213.14 207.77 212.97 207.47Q212.87 207.31 212.73 207.18Q212.71 207.16 212.7 207.15Q212.28 206.8 211.57 206.8L209.92 206.8L209.92 211.29L210.51 211.29ZM214.74 209.47L215.8 209.47L216.77 211.29L217.41 211.29L217.41 211.25L216.35 209.34Q216.69 209.21 216.91 208.97Q216.95 208.93 216.98 208.88Q217.05 208.79 217.09 208.7Q217.21 208.45 217.21 208.15Q217.21 207.63 216.96 207.31Q216.89 207.22 216.8 207.14Q216.39 206.8 215.63 206.8L214.15 206.8L214.15 211.29L214.74 211.29L214.74 209.47ZM211.57 209.05L210.51 209.05L210.51 207.29L211.61 207.29Q212.01 207.29 212.25 207.49Q212.28 207.51 212.3 207.54Q212.37 207.6 212.42 207.68Q212.55 207.89 212.55 208.18Q212.55 208.52 212.39 208.73Q212.35 208.78 212.3 208.82Q212.05 209.05 211.57 209.05ZM215.65 208.99L214.74 208.99L214.74 207.29L215.65 207.29Q216.12 207.29 216.37 207.51Q216.41 207.55 216.45 207.6Q216.61 207.81 216.61 208.15Q216.61 208.39 216.51 208.58Q216.45 208.68 216.35 208.76Q216.34 208.77 216.32 208.79Q216.07 208.99 215.65 208.99ZM207.85 209.63L206.32 209.63L207.09 207.53L207.85 209.63Z" fill="#7C8DB5" fill-opacity="1.000000" fill-rule="evenodd"/>
		<path id="APR 09" d="M255.86 219.78Q256.27 219.19 256.27 217.99L256.27 217.1Q256.26 215.94 255.85 215.38Q255.75 215.25 255.63 215.15Q255.23 214.83 254.57 214.83Q253.92 214.83 253.52 215.15Q253.39 215.26 253.28 215.4Q252.87 215.98 252.87 217.17L252.87 218.08Q252.88 219.22 253.3 219.79Q253.41 219.94 253.55 220.05Q253.94 220.36 254.57 220.36Q255.21 220.36 255.6 220.05Q255.75 219.94 255.86 219.78ZM259.86 218.13Q259.97 218.03 260.07 217.92Q260.03 218.84 259.57 219.27Q259.12 219.7 258.27 219.71L258.13 219.71L258.13 220.29L258.26 220.29Q259.35 220.27 259.96 219.72Q260.06 219.64 260.14 219.55Q260.76 218.83 260.76 217.25L260.76 217.05Q260.76 216.02 260.3 215.43Q260.1 215.17 259.84 215.02Q259.5 214.83 259.04 214.83Q258.57 214.83 258.22 215.02Q258.19 215.04 258.16 215.06Q258.06 215.12 257.98 215.19Q257.73 215.4 257.57 215.72Q257.37 216.15 257.37 216.69Q257.37 217.19 257.56 217.61Q257.71 217.95 257.97 218.16Q258.03 218.21 258.09 218.26Q258.15 218.29 258.21 218.33Q258.51 218.49 258.91 218.49Q259.17 218.49 259.4 218.4Q259.48 218.37 259.56 218.33Q259.72 218.24 259.86 218.13ZM255.34 215.79Q255.58 216.19 255.58 217.05L255.58 218.17Q255.57 219.02 255.33 219.41Q255.23 219.57 255.09 219.66Q254.88 219.8 254.57 219.8Q254.29 219.8 254.08 219.67Q253.92 219.57 253.81 219.39Q253.55 218.97 253.55 218.1L253.55 217Q253.56 216.18 253.8 215.79Q253.89 215.64 254.02 215.55Q254.24 215.39 254.57 215.39Q254.9 215.39 255.12 215.55Q255.25 215.64 255.34 215.79ZM259.28 217.89Q259.15 217.92 259.02 217.92Q258.79 217.92 258.62 217.83Q258.44 217.74 258.31 217.56Q258.31 217.56 258.3 217.56Q258.04 217.2 258.04 216.65Q258.04 216.09 258.32 215.74Q258.45 215.58 258.61 215.49Q258.8 215.4 259.04 215.4Q259.2 215.4 259.33 215.45Q259.59 215.54 259.78 215.82Q260.07 216.24 260.07 216.91L260.07 217.19Q260.04 217.28 259.98 217.36Q259.86 217.56 259.65 217.71Q259.47 217.84 259.28 217.89Z" fill="#000000" fill-opacity="1.000000" fill-rule="evenodd"/>
		<path id="APR 09" d="M253.14 211.29L253.56 210.12L255.44 210.12L255.87 211.29L256.48 211.29L254.76 206.8L254.24 206.8L252.53 211.29L253.14 211.29ZM257.93 211.29L257.93 209.53L258.98 209.53Q259.75 209.53 260.15 209.18Q260.25 209.09 260.32 208.99Q260.56 208.67 260.56 208.17Q260.56 207.77 260.39 207.47Q260.29 207.31 260.14 207.18Q260.13 207.16 260.12 207.15Q259.7 206.8 258.99 206.8L257.34 206.8L257.34 211.29L257.93 211.29ZM262.16 209.47L263.22 209.47L264.19 211.29L264.82 211.29L264.82 211.25L263.77 209.34Q264.11 209.21 264.32 208.97Q264.37 208.93 264.4 208.88Q264.46 208.79 264.51 208.7Q264.63 208.45 264.63 208.15Q264.63 207.63 264.38 207.31Q264.31 207.22 264.22 207.14Q263.81 206.8 263.05 206.8L261.57 206.8L261.57 211.29L262.16 211.29L262.16 209.47ZM258.99 209.05L257.93 209.05L257.93 207.29L259.02 207.29Q259.43 207.29 259.67 207.49Q259.69 207.51 259.72 207.54Q259.79 207.6 259.84 207.68Q259.97 207.89 259.97 208.18Q259.97 208.52 259.8 208.73Q259.76 208.78 259.72 208.82Q259.47 209.05 258.99 209.05ZM263.07 208.99L262.16 208.99L262.16 207.29L263.07 207.29Q263.54 207.29 263.78 207.51Q263.83 207.55 263.87 207.6Q264.03 207.81 264.03 208.15Q264.03 208.39 263.92 208.58Q263.86 208.68 263.77 208.76Q263.76 208.77 263.74 208.79Q263.48 208.99 263.07 208.99ZM255.27 209.63L253.74 209.63L254.5 207.53L255.27 209.63Z" fill="#7C8DB5" fill-opacity="1.000000" fill-rule="evenodd"/>
		<path id="Отчет о расходах" d="M47.39 53.94Q47.76 53.15 47.76 52.09L47.76 51.69Q47.75 50.64 47.38 49.85Q47.1 49.24 46.63 48.85Q46.49 48.73 46.34 48.64Q46.2 48.55 46.07 48.49Q45.49 48.21 44.78 48.21Q44.09 48.21 43.52 48.48Q43.37 48.55 43.23 48.64Q43.09 48.73 42.97 48.82Q42.47 49.23 42.17 49.87Q41.8 50.68 41.8 51.73L41.8 52.13Q41.81 53.16 42.18 53.95Q42.46 54.54 42.91 54.93Q43.06 55.06 43.24 55.17Q43.4 55.27 43.57 55.35Q44.13 55.59 44.79 55.59Q45.5 55.59 46.08 55.31Q46.22 55.25 46.35 55.17Q46.51 55.07 46.65 54.95Q47.11 54.55 47.39 53.94ZM46.06 49.89Q46.51 50.52 46.51 51.72L46.51 52.09Q46.51 53.3 46.07 53.93Q45.88 54.2 45.63 54.35Q45.27 54.57 44.79 54.57Q44.35 54.57 44.02 54.38Q43.72 54.22 43.51 53.92Q43.05 53.27 43.05 52.09L43.05 51.68Q43.06 50.52 43.52 49.88Q43.73 49.59 44.01 49.44Q44.34 49.25 44.78 49.25Q45.25 49.25 45.6 49.46Q45.87 49.61 46.06 49.89ZM61 55.24Q61.59 55.59 62.39 55.59Q63.05 55.59 63.59 55.33Q63.93 55.16 64.18 54.91Q64.33 54.76 64.45 54.59L63.8 53.97Q63.52 54.32 63.16 54.49Q62.84 54.64 62.46 54.64Q62.09 54.64 61.8 54.49Q61.63 54.4 61.48 54.25Q61.44 54.2 61.4 54.15Q61.09 53.79 61.04 53.21L64.53 53.21L64.53 52.72Q64.53 51.45 63.94 50.75Q63.78 50.57 63.59 50.44Q63.06 50.06 62.25 50.06Q61.82 50.06 61.44 50.2Q61.21 50.28 61.01 50.41Q60.84 50.51 60.7 50.64Q60.36 50.94 60.14 51.39Q59.83 52.02 59.83 52.82L59.83 52.96Q59.83 53.9 60.27 54.54Q60.39 54.72 60.54 54.87Q60.75 55.09 61 55.24ZM73.61 51.36Q73.3 51.99 73.3 52.78L73.3 52.84Q73.3 53.94 73.82 54.66Q73.89 54.75 73.97 54.84Q74.2 55.09 74.48 55.26Q75.03 55.59 75.78 55.59Q76.44 55.59 76.95 55.33Q77.02 55.29 77.09 55.25Q77.28 55.13 77.45 54.98Q77.76 54.69 77.95 54.29Q78.26 53.67 78.26 52.88L78.25 52.6Q78.21 51.65 77.74 51.01Q77.64 50.87 77.52 50.75Q77.31 50.53 77.05 50.38Q76.5 50.06 75.77 50.06Q75.14 50.06 74.64 50.31Q74.56 50.35 74.48 50.4Q74.32 50.5 74.17 50.62Q73.83 50.92 73.61 51.36ZM86.3 54.85Q86.86 54.12 86.86 52.88L86.86 52.81Q86.86 51.51 86.31 50.79Q86.07 50.48 85.77 50.31Q85.34 50.06 84.78 50.06Q84.21 50.06 83.8 50.31Q83.54 50.46 83.34 50.7L83.29 50.16L82.19 50.16L82.19 57.54L83.38 57.54L83.38 55.01Q83.56 55.2 83.76 55.33Q84.2 55.59 84.79 55.59Q85.29 55.59 85.68 55.39Q86.03 55.2 86.3 54.85ZM91.13 55Q91.19 55.34 91.26 55.49L92.49 55.49L92.49 55.41Q92.28 54.98 92.28 54.26L92.28 51.85Q92.27 51.24 91.98 50.82Q91.87 50.66 91.71 50.53Q91.7 50.52 91.68 50.5Q91.13 50.06 90.22 50.06Q89.6 50.06 89.1 50.28Q88.62 50.49 88.33 50.85Q88.32 50.86 88.31 50.88Q88.1 51.15 88.04 51.45Q88.02 51.57 88.02 51.7L89.22 51.7Q89.22 51.56 89.27 51.44Q89.33 51.29 89.48 51.18Q89.49 51.17 89.51 51.16Q89.76 50.97 90.15 50.97Q90.6 50.97 90.83 51.2Q90.84 51.21 90.85 51.22Q90.89 51.26 90.92 51.3Q91.09 51.53 91.09 51.88L91.09 52.23L90.35 52.23Q89.17 52.23 88.54 52.69Q88.29 52.87 88.14 53.11Q87.91 53.48 87.91 54Q87.91 54.32 88.02 54.6Q88.15 54.89 88.41 55.13Q88.52 55.23 88.63 55.3Q89.08 55.59 89.73 55.59Q90.14 55.59 90.5 55.44Q90.84 55.29 91.13 55ZM96.52 54.49Q96.27 54.64 95.93 54.64Q95.56 54.64 95.29 54.46Q95.14 54.36 95.03 54.21Q94.72 53.78 94.72 52.91L94.72 52.72Q94.72 51.86 95.04 51.44Q95.16 51.28 95.31 51.18Q95.57 51.02 95.93 51.02Q96.23 51.02 96.45 51.14Q96.58 51.21 96.68 51.32Q96.77 51.41 96.84 51.52Q96.98 51.76 96.99 52.07L98.12 52.07Q98.1 51.47 97.83 51.02Q97.69 50.8 97.49 50.61Q97.36 50.49 97.21 50.39Q96.68 50.06 95.94 50.06Q95.16 50.06 94.6 50.42Q94.36 50.57 94.17 50.79Q94.1 50.87 94.04 50.95Q93.52 51.65 93.52 52.74L93.52 52.86Q93.52 54.09 94.12 54.81Q94.15 54.84 94.17 54.87Q94.37 55.08 94.61 55.24Q95.16 55.59 95.95 55.59Q96.33 55.59 96.67 55.48Q96.85 55.43 97.02 55.34Q97.41 55.15 97.67 54.85Q97.75 54.76 97.81 54.66Q98 54.38 98.07 54.07Q98.12 53.91 98.12 53.73L96.99 53.73Q96.98 53.9 96.92 54.05Q96.84 54.23 96.68 54.37Q96.6 54.44 96.52 54.49ZM104.4 51.36Q104.09 51.99 104.09 52.78L104.09 52.84Q104.09 53.94 104.62 54.66Q104.69 54.75 104.77 54.84Q105 55.09 105.28 55.26Q105.83 55.59 106.58 55.59Q107.23 55.59 107.75 55.33Q107.81 55.29 107.88 55.25Q108.08 55.13 108.24 54.98Q108.55 54.69 108.75 54.29Q109.05 53.67 109.05 52.88L109.05 52.6Q109 51.65 108.53 51.01Q108.43 50.87 108.32 50.75Q108.1 50.53 107.84 50.38Q107.3 50.06 106.57 50.06Q105.94 50.06 105.43 50.31Q105.35 50.35 105.27 50.4Q105.11 50.5 104.97 50.62Q104.62 50.92 104.4 51.36ZM119.42 55Q119.48 55.34 119.56 55.49L120.79 55.49L120.79 55.41Q120.58 54.98 120.58 54.26L120.58 51.85Q120.57 51.24 120.28 50.82Q120.17 50.66 120.01 50.53Q120 50.52 119.98 50.5Q119.43 50.06 118.52 50.06Q117.9 50.06 117.4 50.28Q116.92 50.49 116.63 50.85Q116.62 50.86 116.61 50.88Q116.4 51.15 116.34 51.45Q116.32 51.57 116.32 51.7L117.52 51.7Q117.52 51.56 117.57 51.44Q117.63 51.29 117.78 51.18Q117.79 51.17 117.8 51.16Q118.06 50.97 118.45 50.97Q118.9 50.97 119.13 51.2Q119.14 51.21 119.15 51.22Q119.19 51.26 119.22 51.3Q119.39 51.53 119.39 51.88L119.39 52.23L118.65 52.23Q117.47 52.23 116.84 52.69Q116.59 52.87 116.44 53.11Q116.2 53.48 116.2 54Q116.2 54.32 116.32 54.6Q116.45 54.89 116.71 55.13Q116.82 55.23 116.93 55.3Q117.38 55.59 118.02 55.59Q118.44 55.59 118.79 55.44Q119.14 55.29 119.42 55ZM57.36 55.49L58.56 55.49L58.56 50.16L57.36 50.16L57.36 52.74Q56.87 52.85 56.39 52.85Q55.86 52.85 55.6 52.61Q55.34 52.37 55.34 51.79L55.34 50.15L54.14 50.15L54.14 51.79Q54.14 52.6 54.53 53.1Q54.62 53.21 54.72 53.3Q55.29 53.82 56.39 53.82Q56.9 53.82 57.36 53.71L57.36 55.49ZM51.56 51.11L53.29 51.11L53.29 50.16L48.65 50.16L48.65 51.11L50.36 51.11L50.36 55.49L51.56 55.49L51.56 51.11ZM68.07 51.11L69.81 51.11L69.81 50.16L65.17 50.16L65.17 51.11L66.88 51.11L66.88 55.49L68.07 55.49L68.07 51.11ZM102.16 50.16L101.15 51.91L100.15 50.16L98.83 50.16L100.46 52.79L98.77 55.49L100.1 55.49L101.16 53.67L102.23 55.49L103.55 55.49L101.86 52.79L103.49 50.16L102.16 50.16ZM110.6 53.48Q110.43 53.98 109.93 54.54L109.49 54.54L109.49 57.08L110.7 57.08L110.7 55.49L114.12 55.49L114.12 57.08L115.32 57.08L115.32 54.54L114.58 54.54L114.58 50.16L110.87 50.16L110.81 52.2Q110.77 52.98 110.6 53.48ZM124.97 50.16L123.96 51.91L122.96 50.16L121.64 50.16L123.27 52.79L121.58 55.49L122.91 55.49L123.97 53.67L125.04 55.49L126.36 55.49L124.67 52.79L126.3 50.16L124.97 50.16ZM61.72 51.15Q61.95 51.02 62.25 51.02Q62.63 51.02 62.88 51.2Q62.96 51.26 63.03 51.33Q63.31 51.64 63.35 52.24L63.35 52.33L61.06 52.33Q61.15 51.71 61.45 51.37Q61.57 51.23 61.72 51.15ZM74.83 54.17Q74.49 53.7 74.49 52.88Q74.49 51.95 74.84 51.49Q75.01 51.26 75.23 51.14Q75.47 51.02 75.77 51.02Q76.08 51.02 76.32 51.15Q76.55 51.27 76.72 51.49Q77.06 51.97 77.06 52.78Q77.06 53.69 76.73 54.16Q76.57 54.37 76.37 54.49Q76.12 54.64 75.78 54.64Q75.44 54.64 75.18 54.49Q74.98 54.37 74.83 54.17ZM105.63 54.17Q105.29 53.7 105.29 52.88Q105.29 51.95 105.63 51.49Q105.8 51.26 106.03 51.14Q106.26 51.02 106.57 51.02Q106.88 51.02 107.12 51.15Q107.34 51.27 107.51 51.49Q107.86 51.97 107.86 52.78Q107.86 53.69 107.52 54.16Q107.37 54.37 107.16 54.49Q106.91 54.64 106.58 54.64Q106.23 54.64 105.98 54.49Q105.78 54.37 105.63 54.17ZM85.35 51.51Q85.67 51.98 85.67 52.78Q85.67 53.71 85.34 54.17Q85.19 54.4 84.98 54.51Q84.75 54.64 84.45 54.64Q84.04 54.64 83.76 54.45Q83.53 54.29 83.38 54.01L83.38 51.65Q83.52 51.38 83.74 51.23Q84.03 51.04 84.44 51.04Q84.77 51.04 85.01 51.18Q85.21 51.3 85.35 51.51ZM113.38 54.54L111.34 54.54Q111.93 53.68 112 52.21L112.04 51.19L113.38 51.19L113.38 54.54ZM90.27 54.59Q90.12 54.63 89.95 54.63Q89.6 54.63 89.38 54.46Q89.36 54.44 89.33 54.43Q89.26 54.36 89.21 54.28Q89.1 54.11 89.1 53.88Q89.1 53.64 89.2 53.47Q89.29 53.33 89.44 53.22Q89.78 52.99 90.44 52.99L91.09 52.99L91.09 53.99Q91.05 54.07 90.99 54.14Q90.85 54.33 90.62 54.46Q90.45 54.55 90.27 54.59ZM118.57 54.59Q118.41 54.63 118.25 54.63Q117.9 54.63 117.68 54.46Q117.65 54.44 117.63 54.43Q117.56 54.36 117.51 54.28Q117.4 54.11 117.4 53.88Q117.4 53.64 117.5 53.47Q117.59 53.33 117.74 53.22Q118.07 52.99 118.74 52.99L119.39 52.99L119.39 53.99Q119.34 54.07 119.29 54.14Q119.15 54.33 118.91 54.46Q118.75 54.55 118.57 54.59Z" fill="#0F3F62" fill-opacity="1.000000" fill-rule="evenodd"/>
		<path id="$10k" d="M43.88 87.67Q43.94 87.8 43.94 87.95Q43.94 88.16 43.84 88.32Q43.79 88.41 43.71 88.48Q43.48 88.67 43.07 88.67Q42.71 88.67 42.49 88.49Q42.46 88.47 42.43 88.44Q42.42 88.43 42.41 88.41Q42.21 88.18 42.21 87.78L41.64 87.78Q41.64 88.34 41.91 88.68Q41.93 88.71 41.96 88.75Q42.02 88.81 42.09 88.86Q42.39 89.11 42.86 89.15L42.86 89.74L43.32 89.74L43.32 89.15Q43.87 89.1 44.18 88.8Q44.19 88.79 44.2 88.78Q44.27 88.7 44.33 88.62Q44.51 88.34 44.51 87.94Q44.51 87.61 44.38 87.37Q44.26 87.13 43.99 86.94Q43.73 86.76 43.26 86.61Q42.79 86.46 42.59 86.27Q42.52 86.21 42.48 86.14Q42.38 85.98 42.38 85.77Q42.38 85.48 42.52 85.3Q42.55 85.27 42.58 85.24Q42.58 85.23 42.59 85.23Q42.78 85.05 43.14 85.05Q43.34 85.05 43.5 85.14Q43.61 85.2 43.69 85.31Q43.9 85.56 43.9 86L44.47 86Q44.47 85.36 44.18 85Q44.1 84.89 43.99 84.81Q43.74 84.62 43.37 84.57L43.37 83.89L42.91 83.89L42.91 84.56Q42.49 84.61 42.21 84.85Q42.16 84.89 42.11 84.95Q42.04 85.02 41.98 85.11Q41.81 85.39 41.81 85.78Q41.81 86.13 41.97 86.4Q42.03 86.5 42.11 86.6Q42.41 86.92 43.07 87.12Q43.54 87.27 43.74 87.47Q43.83 87.56 43.88 87.67ZM53.69 87.93L54.05 87.56L55.21 89.1L55.88 89.1L54.43 87.16L55.73 85.77L55.04 85.77L54 86.87L53.69 87.23L53.69 84.37L53.12 84.37L53.12 89.1L53.69 89.1L53.69 87.93ZM51.74 88.68Q52.08 88.19 52.08 87.19L52.08 86.45Q52.07 85.48 51.73 85.02Q51.65 84.91 51.55 84.83Q51.22 84.55 50.66 84.55Q50.12 84.55 49.79 84.82Q49.68 84.91 49.59 85.03Q49.25 85.52 49.25 86.5L49.25 87.27Q49.26 88.21 49.6 88.69Q49.7 88.82 49.82 88.91Q50.14 89.16 50.67 89.16Q51.2 89.16 51.52 88.91Q51.64 88.81 51.74 88.68ZM46.77 89.1L47.34 89.1L47.34 84.59L47.25 84.59L45.62 85.21L45.62 85.72L46.77 85.3L46.77 89.1ZM51.31 85.35Q51.51 85.68 51.51 86.41L51.51 87.34Q51.5 88.05 51.3 88.37Q51.21 88.5 51.09 88.58Q50.92 88.7 50.67 88.7Q50.43 88.7 50.26 88.59Q50.12 88.51 50.03 88.35Q49.82 88.01 49.82 87.28L49.82 86.37Q49.82 85.68 50.02 85.35Q50.1 85.23 50.21 85.15Q50.39 85.02 50.66 85.02Q50.94 85.02 51.12 85.15Q51.23 85.23 51.31 85.35Z" fill="#7C8DB5" fill-opacity="1.000000" fill-rule="evenodd"/>
		<path id="$5k" d="M43.88 113.55Q43.94 113.67 43.94 113.82Q43.94 114.04 43.84 114.2Q43.79 114.29 43.71 114.35Q43.48 114.55 43.07 114.55Q42.71 114.55 42.49 114.37Q42.46 114.35 42.43 114.32Q42.42 114.3 42.41 114.29Q42.21 114.06 42.21 113.66L41.64 113.66Q41.64 114.21 41.91 114.56Q41.93 114.59 41.96 114.62Q42.02 114.69 42.09 114.74Q42.39 114.99 42.86 115.03L42.86 115.62L43.32 115.62L43.32 115.03Q43.87 114.98 44.18 114.67Q44.19 114.67 44.2 114.66Q44.27 114.58 44.33 114.49Q44.51 114.21 44.51 113.82Q44.51 113.49 44.38 113.25Q44.26 113 43.99 112.82Q43.73 112.64 43.26 112.49Q42.79 112.33 42.59 112.15Q42.52 112.09 42.48 112.02Q42.38 111.86 42.38 111.65Q42.38 111.36 42.52 111.18Q42.55 111.15 42.58 111.12Q42.58 111.11 42.59 111.1Q42.78 110.93 43.14 110.93Q43.34 110.93 43.5 111.02Q43.61 111.08 43.69 111.18Q43.9 111.44 43.9 111.87L44.47 111.87Q44.47 111.24 44.18 110.88Q44.1 110.77 43.99 110.69Q43.74 110.49 43.37 110.44L43.37 109.77L42.91 109.77L42.91 110.44Q42.49 110.49 42.21 110.72Q42.16 110.77 42.11 110.83Q42.04 110.9 41.98 110.99Q41.81 111.27 41.81 111.65Q41.81 112.01 41.97 112.28Q42.03 112.38 42.11 112.47Q42.41 112.79 43.07 113Q43.54 113.15 43.74 113.35Q43.83 113.44 43.88 113.55ZM49.9 113.81L50.26 113.44L51.42 114.98L52.09 114.98L50.64 113.04L51.93 111.65L51.24 111.65L50.2 112.74L49.9 113.11L49.9 110.25L49.33 110.25L49.33 114.98L49.9 114.98L49.9 113.81ZM45.96 110.49L45.73 112.73L46.19 112.85L46.34 112.72Q46.55 112.56 46.92 112.56Q47.19 112.56 47.39 112.68Q47.49 112.74 47.58 112.83Q47.61 112.87 47.63 112.91Q47.82 113.16 47.82 113.56Q47.82 114.03 47.59 114.3Q47.52 114.4 47.42 114.46Q47.23 114.58 46.97 114.58Q46.65 114.58 46.44 114.42Q46.41 114.4 46.38 114.38Q46.38 114.38 46.38 114.38Q46.16 114.18 46.11 113.8L45.57 113.8Q45.61 114.25 45.85 114.55Q45.91 114.64 46 114.71Q46.06 114.77 46.13 114.81Q46.48 115.04 46.97 115.04Q47.51 115.04 47.86 114.78Q47.94 114.72 48.02 114.64Q48.05 114.6 48.09 114.56Q48.39 114.17 48.39 113.55Q48.39 112.91 48.08 112.51Q48.06 112.48 48.03 112.45Q47.91 112.32 47.77 112.24Q47.47 112.05 47.06 112.05Q46.71 112.05 46.43 112.18Q46.37 112.21 46.31 112.24L46.44 111.02L48.26 111.02L48.26 110.49L45.96 110.49Z" fill="#7C8DB5" fill-opacity="1.000000" fill-rule="evenodd"/>
		<path id="2,5k" d="M51.39 141.58L51.75 141.21L52.91 142.75L53.58 142.75L52.13 140.81L53.43 139.42L52.73 139.42L51.69 140.52L51.39 140.88L51.39 138.02L50.82 138.02L50.82 142.75L51.39 142.75L51.39 141.58ZM41.67 142.75L44.61 142.75L44.61 142.29L42.36 142.29L43.56 140.98Q44.41 140.07 44.41 139.41Q44.41 139.05 44.25 138.78Q44.17 138.64 44.04 138.53Q44.02 138.51 43.99 138.49Q43.63 138.2 43.05 138.2Q42.5 138.2 42.13 138.46Q42.06 138.52 41.99 138.59Q41.86 138.71 41.77 138.85Q41.59 139.17 41.59 139.59L42.16 139.59Q42.16 139.2 42.34 138.97Q42.37 138.94 42.39 138.91Q42.43 138.88 42.47 138.85Q42.69 138.67 43.05 138.67Q43.31 138.67 43.49 138.79Q43.56 138.83 43.62 138.9Q43.68 138.96 43.72 139.03Q43.83 139.22 43.83 139.47Q43.83 139.54 43.82 139.61Q43.8 139.8 43.7 139.98Q43.57 140.23 43.23 140.62L41.67 142.34L41.67 142.75ZM47.45 138.27L47.22 140.5L47.68 140.62L47.83 140.5Q48.04 140.33 48.42 140.33Q48.68 140.33 48.88 140.45Q48.98 140.51 49.07 140.61Q49.1 140.64 49.13 140.68Q49.31 140.94 49.31 141.33Q49.31 141.81 49.09 142.08Q49.01 142.17 48.91 142.23Q48.72 142.35 48.46 142.35Q48.14 142.35 47.93 142.2Q47.9 142.18 47.88 142.15Q47.87 142.15 47.87 142.15Q47.65 141.96 47.6 141.57L47.06 141.57Q47.1 142.02 47.34 142.32Q47.41 142.41 47.49 142.49Q47.55 142.54 47.62 142.59Q47.97 142.81 48.46 142.81Q49 142.81 49.35 142.56Q49.44 142.49 49.51 142.42Q49.55 142.38 49.58 142.33Q49.88 141.95 49.88 141.32Q49.88 140.68 49.57 140.28Q49.55 140.25 49.52 140.23Q49.41 140.1 49.26 140.01Q48.96 139.82 48.55 139.82Q48.2 139.82 47.92 139.95Q47.86 139.98 47.8 140.02L47.93 138.79L49.75 138.79L49.75 138.27L47.45 138.27ZM45.19 143.42L45.51 143.65Q45.74 143.46 45.89 143.15Q46.05 142.84 46.05 142.53L46.05 142.08L45.49 142.08L45.49 142.59Q45.49 142.63 45.48 142.67Q45.45 143.06 45.19 143.42Z" fill="#7C8DB5" fill-opacity="1.000000" fill-rule="evenodd"/>
		<path id="0,8k" d="M51.39 169.35L51.75 168.98L52.91 170.52L53.58 170.52L52.13 168.58L53.43 167.19L52.73 167.19L51.69 168.29L51.39 168.65L51.39 165.79L50.82 165.79L50.82 170.52L51.39 170.52L51.39 169.35ZM44.14 170.1Q44.49 169.61 44.49 168.61L44.49 167.87Q44.48 166.9 44.14 166.44Q44.06 166.33 43.95 166.25Q43.62 165.98 43.07 165.98Q42.53 165.98 42.2 166.24Q42.08 166.33 42 166.46Q41.65 166.94 41.65 167.93L41.65 168.69Q41.67 169.63 42.01 170.11Q42.1 170.24 42.22 170.33Q42.55 170.59 43.07 170.59Q43.6 170.59 43.93 170.33Q44.05 170.23 44.14 170.1ZM49.6 167.63Q49.68 167.44 49.68 167.21Q49.68 166.81 49.5 166.53Q49.42 166.41 49.32 166.31Q49.25 166.25 49.18 166.2Q48.85 165.98 48.36 165.98Q47.86 165.98 47.53 166.21Q47.46 166.25 47.4 166.31Q47.3 166.41 47.22 166.52Q47.04 166.81 47.04 167.21Q47.04 167.43 47.12 167.63Q47.15 167.72 47.21 167.8Q47.26 167.88 47.32 167.94Q47.47 168.11 47.68 168.21Q47.42 168.33 47.24 168.52Q47.18 168.58 47.13 168.66Q47.05 168.78 47 168.92Q46.93 169.1 46.93 169.31Q46.93 169.69 47.1 169.97Q47.19 170.12 47.32 170.24Q47.36 170.28 47.41 170.31Q47.78 170.59 48.36 170.59Q48.92 170.59 49.3 170.32Q49.35 170.28 49.39 170.24Q49.53 170.12 49.62 169.98Q49.79 169.7 49.79 169.31Q49.79 169.1 49.72 168.91Q49.67 168.78 49.58 168.66Q49.53 168.58 49.47 168.52Q49.29 168.33 49.03 168.22Q49.25 168.11 49.4 167.94Q49.46 167.88 49.5 167.81Q49.56 167.72 49.6 167.63ZM43.71 166.78Q43.92 167.11 43.92 167.83L43.92 168.77Q43.91 169.47 43.7 169.79Q43.62 169.93 43.5 170.01Q43.33 170.12 43.07 170.12Q42.84 170.12 42.67 170.01Q42.53 169.93 42.44 169.77Q42.22 169.43 42.22 168.7L42.22 167.79Q42.23 167.1 42.43 166.77Q42.51 166.65 42.61 166.57Q42.79 166.44 43.07 166.44Q43.35 166.44 43.53 166.58Q43.64 166.65 43.71 166.78ZM47.94 166.55Q48.12 166.44 48.36 166.44Q48.56 166.44 48.72 166.53Q48.82 166.58 48.9 166.66Q48.96 166.72 49.01 166.8Q49.11 166.98 49.11 167.22Q49.11 167.48 48.99 167.66Q48.96 167.72 48.91 167.77Q48.85 167.83 48.79 167.87Q48.61 167.98 48.36 167.98Q48.11 167.98 47.93 167.87Q47.87 167.83 47.81 167.77Q47.76 167.72 47.73 167.66Q47.61 167.48 47.61 167.22Q47.61 166.93 47.75 166.73Q47.78 166.69 47.82 166.65Q47.87 166.59 47.94 166.55ZM49.11 168.85Q49.22 169.04 49.22 169.3Q49.22 169.6 49.08 169.8Q49.04 169.85 48.99 169.9Q48.96 169.93 48.93 169.95Q48.71 170.12 48.36 170.12Q48 170.12 47.78 169.94Q47.75 169.92 47.73 169.9Q47.68 169.86 47.65 169.81Q47.5 169.61 47.5 169.3Q47.5 169.02 47.63 168.81Q47.68 168.74 47.74 168.68Q47.79 168.63 47.86 168.58Q48.06 168.45 48.35 168.45Q48.63 168.45 48.84 168.58Q48.91 168.62 48.98 168.69Q49.05 168.76 49.11 168.85ZM45.19 171.2L45.51 171.42Q45.74 171.23 45.89 170.92Q46.05 170.61 46.05 170.3L46.05 169.85L45.49 169.85L45.49 170.36Q45.49 170.4 45.48 170.44Q45.45 170.83 45.19 171.2Z" fill="#7C8DB5" fill-opacity="1.000000" fill-rule="evenodd"/>
	</g>
</svg>
