<svg width="355.000000" height="67.000000" viewBox="0 0 355 67" fill="none" xmlns="http://www.w3.org/2000/svg" xmlns:xlink="http://www.w3.org/1999/xlink">
	<desc>
			Created with Pixso.
	</desc>
	<defs/>
	<rect id="Shape" rx="20.000000" width="355.000000" height="67.000000" fill="#FFFFFF" fill-opacity="1.000000"/>
	<rect id="Shape" rx="20.000000" width="355.000000" height="67.000000" stroke="#E2E2EA" stroke-opacity="0" stroke-width="0.000000"/>
	<mask id="mask745_4359" mask-type="alpha" maskUnits="userSpaceOnUse" x="0.000000" y="0.000000" width="348.000000" height="67.000000">
		<rect id="Shape" rx="20.000000" width="348.000000" height="67.000000" fill="#FFFFFF" fill-opacity="1.000000"/>
		<rect id="Shape" rx="20.000000" width="348.000000" height="67.000000" stroke="#E2E2EA" stroke-opacity="0" stroke-width="0.000000"/>
	</mask>
	<g mask="url(#mask745_4359)">
		<g opacity="0.100000" style="mix-blend-mode:normal">
			<path id="Shape" d="" fill="#D8D8D8" fill-opacity="0" fill-rule="nonzero"/>
			<path id="Shape" d="M51 34C51 24.05 42.94 16 33 16C23.05 16 15 24.05 15 34C15 43.94 23.05 52 33 52C42.94 52 51 43.94 51 34Z" stroke="#0056FE" stroke-opacity="1.000000" stroke-width="1.542857"/>
		</g>
		<path id="Shape" d="M38.15 29.76C39.09 30.91 39.66 32.39 39.66 34C39.66 37.68 36.68 40.66 33 40.66C29.31 40.66 26.33 37.68 26.33 34C26.33 30.31 29.31 27.33 33 27.33C34.59 27.33 36.06 27.89 37.2 28.82L37.57 28.45L37.74 27.52C37.81 27.16 38.16 26.92 38.52 26.99C38.88 27.06 39.12 27.41 39.05 27.77L39.02 27.97L39.22 27.94C39.58 27.87 39.93 28.11 40 28.47C40.07 28.83 39.83 29.18 39.47 29.25L38.48 29.43L38.15 29.76ZM36.25 29.77C35.35 29.08 34.22 28.66 33 28.66C30.05 28.66 27.66 31.05 27.66 34C27.66 36.94 30.05 39.33 33 39.33C35.94 39.33 38.33 36.94 38.33 34C38.33 32.76 37.91 31.62 37.2 30.71L36.25 31.66C36.72 32.32 37 33.12 37 34C37 36.2 35.2 38 33 38C30.79 38 29 36.2 29 34C29 31.79 30.79 30 33 30C33.85 30 34.65 30.26 35.3 30.72L36.25 29.77ZM34.33 31.69C33.94 31.46 33.48 31.33 33 31.33C31.52 31.33 30.33 32.52 30.33 34C30.33 35.47 31.52 36.66 33 36.66C34.47 36.66 35.66 35.47 35.66 34C35.66 33.49 35.52 33.03 35.28 32.63L34.28 33.63C34.31 33.75 34.33 33.87 34.33 34C34.33 34.73 33.73 35.33 33 35.33C32.26 35.33 31.66 34.73 31.66 34C31.66 33.26 32.26 32.66 33 32.66C33.11 32.66 33.22 32.67 33.32 32.7L34.33 31.69Z" fill="#0056FE" fill-opacity="1.000000" fill-rule="evenodd"/>
		<path id="Shape" d="M14.24 34.01L14.22 34C14.22 33.56 14.56 33.22 15 33.22C15.43 33.22 15.77 33.56 15.77 34L15.75 34.01L14.24 34.01ZM33.01 16.75L33 16.77C32.56 16.77 32.22 16.43 32.22 16C32.22 15.56 32.56 15.22 33 15.22L33.01 15.24L33.01 16.75Z" fill="#D8D8D8" fill-opacity="0" fill-rule="nonzero"/>
		<path id="Shape" d="M15 34C15 43.94 23.05 52 33 52C42.94 52 51 43.94 51 34C51 24.05 42.94 16 33 16" stroke="#0056FE" stroke-opacity="1.000000" stroke-width="1.542857" stroke-linejoin="round" stroke-linecap="round"/>
		<path id="68%" d="M76.46 24.44C75.06 24.44 74.3 23.44 74.3 22.26L74.3 21.72C74.3 20.53 75.09 19.53 76.46 19.53C77.87 19.53 78.61 20.53 78.61 21.72L78.61 22.26C78.61 23.45 77.85 24.44 76.46 24.44ZM59.19 30L57.27 30L61.6 21.42L61.6 21.35L56.58 21.35L56.58 19.81L63.51 19.81L63.51 21.39L59.19 30ZM72.27 26.65C72.27 28.67 70.77 30.14 68.62 30.14C66.63 30.14 65.15 28.91 65.1 27.23L66.89 27.23C66.96 28.06 67.7 28.64 68.62 28.64C69.71 28.64 70.49 27.83 70.49 26.69C70.49 25.54 69.69 24.71 68.57 24.71C67.96 24.7 67.31 24.96 66.97 25.34L65.3 25.06L65.83 19.81L71.74 19.81L71.74 21.35L67.36 21.35L67.07 24.05L67.13 24.05C67.51 23.61 68.23 23.28 69.06 23.28C70.91 23.28 72.27 24.69 72.27 26.65ZM76.11 30L74.86 30L81.86 19.81L83.11 19.81L76.11 30ZM76.46 20.66C75.83 20.66 75.61 21.2 75.61 21.72L75.61 22.26C75.61 22.79 75.82 23.31 76.46 23.31C77.1 23.31 77.3 22.79 77.3 22.26L77.3 21.72C77.3 21.19 77.12 20.66 76.46 20.66ZM81.63 30.28C80.23 30.28 79.48 29.27 79.48 28.08L79.48 27.55C79.48 26.37 80.25 25.36 81.63 25.36C83.04 25.36 83.78 26.35 83.78 27.55L83.78 28.08C83.78 29.27 83.02 30.28 81.63 30.28ZM81.63 26.49C81 26.49 80.77 27.02 80.77 27.55L80.77 28.08C80.77 28.61 80.99 29.13 81.63 29.13C82.26 29.13 82.48 28.61 82.48 28.08L82.48 27.55C82.48 27.02 82.29 26.49 81.63 26.49Z" fill="#202021" fill-opacity="1.000000" fill-rule="evenodd"/>
		<path id="Hit Rate this year" d="M57.93 50L56.96 50L56.96 41.99L59.67 41.99C61.55 41.99 62.39 43.11 62.39 44.53C62.39 45.94 61.55 47.07 59.68 47.07L57.93 47.07L57.93 50ZM182.72 42.76C183.27 42.76 183.49 42.4 183.49 41.99L184.35 41.99C184.35 42.84 183.72 43.43 182.72 43.43C181.74 43.43 181.12 42.84 181.12 41.99L181.97 41.99C181.97 42.4 182.18 42.76 182.72 42.76ZM57.93 42.85L57.93 46.21L59.65 46.21C60.94 46.21 61.43 45.49 61.43 44.53C61.43 43.57 60.94 42.85 59.64 42.85L57.93 42.85ZM69 47.03C69 48.89 67.9 50.12 66.28 50.12C64.65 50.12 63.56 48.89 63.56 47.03C63.56 45.15 64.65 43.92 66.28 43.92C67.9 43.92 69 45.15 69 47.03ZM75.28 48.24C75.12 49.31 74.24 50.12 72.92 50.12C71.23 50.12 70.2 48.82 70.2 47.03C70.2 45.2 71.28 43.92 72.9 43.92C74.17 43.92 75.12 44.67 75.28 45.79L74.36 45.79C74.22 45.24 73.73 44.74 72.92 44.74C71.84 44.74 71.12 45.64 71.12 47C71.12 48.39 71.83 49.29 72.92 49.29C73.64 49.29 74.18 48.9 74.36 48.24L75.28 48.24ZM97.61 48.6C97.32 49.51 96.44 50.12 95.22 50.12C93.48 50.12 92.42 48.89 92.42 47.04C92.42 45.2 93.5 43.92 95.12 43.92C96.37 43.92 97.7 44.68 97.7 46.92L97.7 47.31L93.34 47.31C93.39 48.59 94.13 49.29 95.22 49.29C95.94 49.29 96.48 48.98 96.72 48.35L97.61 48.6ZM110.66 48.6C110.37 49.51 109.48 50.12 108.26 50.12C106.53 50.12 105.47 48.89 105.47 47.04C105.47 45.2 106.55 43.92 108.17 43.92C109.42 43.92 110.75 44.68 110.75 46.92L110.75 47.31L106.39 47.31C106.44 48.59 107.18 49.29 108.26 49.29C108.99 49.29 109.53 48.98 109.76 48.35L110.66 48.6ZM137.88 50.12C136.6 50.12 135.66 49.45 135.63 48.46L136.61 48.46C136.65 49.01 137.14 49.29 137.86 49.29C138.6 49.29 139.2 49.01 139.2 48.32C139.2 47.73 138.73 47.32 138 47.32L136.97 47.32L136.97 46.5L138 46.5C138.73 46.5 139.08 46.12 139.08 45.62C139.08 45.09 138.68 44.73 137.99 44.73C137.28 44.73 136.76 45.08 136.74 45.57L135.77 45.57C135.8 44.61 136.69 43.92 137.94 43.92C139.2 43.92 140.02 44.64 140.02 45.59C140.02 46.26 139.59 46.68 139.02 46.86L139.02 46.92C139.69 46.96 140.14 47.57 140.14 48.32C140.14 49.42 139.19 50.12 137.88 50.12ZM151.55 49.18C151.36 49.57 150.81 50.13 149.77 50.13C148.63 50.13 147.72 49.46 147.72 48.29C147.72 46.92 148.94 46.67 150.05 46.53C151.14 46.39 151.59 46.43 151.59 45.98L151.59 45.95C151.59 45.18 151.18 44.73 150.33 44.73C149.45 44.73 148.97 45.2 148.77 45.64L147.89 45.32C148.36 44.23 149.39 43.92 150.3 43.92C151.07 43.92 152.52 44.14 152.52 46.04L152.52 50L151.59 50L151.59 49.18L151.55 49.18ZM165.58 48.6C165.3 49.51 164.41 50.12 163.19 50.12C161.46 50.12 160.39 48.89 160.39 47.04C160.39 45.2 161.47 43.92 163.1 43.92C164.35 43.92 165.67 44.68 165.67 46.92L165.67 47.31L161.32 47.31C161.36 48.59 162.11 49.29 163.19 49.29C163.91 49.29 164.46 48.98 164.69 48.35L165.58 48.6ZM157.99 44L158.91 44L158.91 50L157.99 50L157.99 47.9C157.55 48.03 157.1 48.1 156.53 48.1C155.17 48.1 154.28 47.37 154.28 45.9L154.28 43.98L155.2 43.98L155.2 45.9C155.2 46.82 155.78 47.25 156.53 47.25C157.08 47.25 157.54 47.17 157.99 47.04L157.99 44ZM78.21 44.85L76.23 44.85L76.23 44L81.1 44L81.1 44.85L79.14 44.85L79.14 50L78.21 50L78.21 44.85ZM89.5 44L90.42 44L90.42 49.14L91.26 49.14L91.26 51.93L90.34 51.93L90.34 50L85.7 50L85.7 44L86.62 44L86.62 49.14L89.5 49.14L89.5 44ZM98.97 50L98.65 50L98.65 49.14L98.87 49.14C99.59 49.14 99.79 48.67 99.87 46.65L99.98 44L103.98 44L103.98 50L103.06 50L103.06 44.85L100.86 44.85L100.76 47C100.68 48.96 100.29 50 98.97 50ZM115.06 50L112.23 50L112.23 44L114.69 44C115.98 44 116.8 44.63 116.8 45.59C116.8 46.32 116.32 46.7 115.64 46.84C116.3 46.94 117.02 47.44 117.02 48.39C117.02 49.31 116.28 50 115.06 50ZM119.4 44L119.4 46.17L121 46.17C122.41 46.17 123.17 46.96 123.17 48.06C123.17 49.14 122.41 50 121 50L118.48 50L118.48 44L119.4 44ZM125.05 50L124.13 50L124.13 44L125.05 44L125.05 50ZM126.44 44L127.5 44L128.94 46.45L130.38 44L131.44 44L129.5 47L131.44 50L130.38 50L128.94 47.67L127.5 50L126.44 50L128.34 47L126.44 44ZM141.52 44L142.44 44L142.44 46.57L145.31 46.57L145.31 44L146.24 44L146.24 50L145.31 50L145.31 47.43L142.44 47.43L142.44 50L141.52 50L141.52 44ZM167.16 44L168.08 44L168.08 46.57L170.96 46.57L170.96 44L171.88 44L171.88 50L170.96 50L170.96 47.43L168.08 47.43L168.08 50L167.16 50L167.16 44ZM174.57 44L174.57 48.64L177.46 44L178.52 44L178.52 50L177.6 50L177.6 45.35L174.72 50L173.64 50L173.64 44L174.57 44ZM181.21 44L181.21 48.64L184.1 44L185.16 44L185.16 50L184.24 50L184.24 45.35L181.36 50L180.29 50L180.29 44L181.21 44ZM64.48 47.03C64.48 48.23 65.04 49.29 66.28 49.29C67.51 49.29 68.07 48.23 68.07 47.03C68.07 45.82 67.51 44.74 66.28 44.74C65.04 44.74 64.48 45.82 64.48 47.03ZM95.12 44.74C94.07 44.74 93.41 45.58 93.34 46.51L96.76 46.51C96.76 45.49 96.12 44.74 95.12 44.74ZM108.17 44.74C107.12 44.74 106.45 45.58 106.39 46.51L109.81 46.51C109.81 45.49 109.17 44.74 108.17 44.74ZM163.1 44.74C162.04 44.74 161.38 45.58 161.32 46.51L164.74 46.51C164.74 45.49 164.1 44.74 163.1 44.74ZM113.11 44.84L113.11 46.51L114.69 46.51C115.43 46.51 115.88 46.19 115.88 45.65C115.88 45.15 115.43 44.84 114.69 44.84L113.11 44.84ZM148.64 48.34C148.64 48.98 149.17 49.31 149.91 49.31C151 49.31 151.59 48.57 151.59 47.82L151.59 46.98C151.44 47.17 150.39 47.28 150 47.32C149.28 47.42 148.64 47.63 148.64 48.34ZM121 47.03L119.4 47.03L119.4 49.14L121 49.14C121.73 49.14 122.25 48.71 122.25 48.1C122.25 47.47 121.73 47.03 121 47.03ZM113.11 47.31L113.11 49.15L115.06 49.15C115.7 49.15 116.08 48.83 116.08 48.31C116.08 47.69 115.7 47.31 115.06 47.31L113.11 47.31Z" fill="#696974" fill-opacity="1.000000" fill-rule="evenodd"/>
	</g>
	<g mask="url(#mask745_4359)">
		<g opacity="0.100000" style="mix-blend-mode:normal">
			<path id="Shape Copy 3" d="" fill="#D8D8D8" fill-opacity="0" fill-rule="nonzero"/>
			<path id="Shape Copy 3" d="M241 34C241 24.05 232.94 16 223 16C213.05 16 205 24.05 205 34C205 43.94 213.05 52 223 52C232.94 52 241 43.94 241 34Z" stroke="#0062FF" stroke-opacity="1.000000" stroke-width="1.540000"/>
		</g>
		<path id="Shape" d="M229 31.33L217 31.33L217 33.33C217 33.7 217.29 34 217.66 34L228.33 34C228.7 34 229 33.7 229 33.33L229 31.33ZM219.66 30C219.66 28.89 220.56 28 221.66 28L224.33 28C225.43 28 226.33 28.89 226.33 30L229 30C229.73 30 230.33 30.59 230.33 31.33L230.33 38C230.33 39.47 229.13 40.66 227.66 40.66L218.33 40.66C216.85 40.66 215.66 39.47 215.66 38L215.66 31.33C215.66 30.59 216.26 30 217 30L219.66 30ZM221 30L225 30C225 29.63 224.7 29.33 224.33 29.33L221.66 29.33C221.29 29.33 221 29.63 221 30ZM221 35.33L217.66 35.33C217.43 35.33 217.2 35.29 217 35.21L217 38C217 38.73 217.59 39.33 218.33 39.33L227.66 39.33C228.4 39.33 229 38.73 229 38L229 35.21C228.79 35.29 228.56 35.33 228.33 35.33L225 35.33L225 36.4C225 36.91 224.58 37.33 224.06 37.33L221.93 37.33C221.41 37.33 221 36.91 221 36.4L221 35.33ZM222.33 36L223.66 36L223.66 35.33L222.33 35.33L222.33 36Z" fill="#0062FF" fill-opacity="1.000000" fill-rule="evenodd"/>
		<path id="Shape Copy 4" d="M204.24 34.01L204.22 34C204.22 33.56 204.56 33.22 205 33.22C205.43 33.22 205.77 33.56 205.77 34L205.75 34.01L204.24 34.01ZM223.02 16.75L223 16.77C222.56 16.77 222.22 16.43 222.22 16C222.22 15.56 222.56 15.22 223 15.22L223.02 15.24L223.02 16.75Z" fill="#D8D8D8" fill-opacity="0" fill-rule="nonzero"/>
		<path id="Shape Copy 4" d="M205 34C205 43.94 213.05 52 223 52C232.94 52 241 43.94 241 34C241 24.05 232.94 16 223 16" stroke="#0062FF" stroke-opacity="1.000000" stroke-width="1.542857" stroke-linejoin="round" stroke-linecap="round"/>
		<path id="76%" d="M266.6 23.44C265.2 23.44 264.44 22.44 264.44 21.26L264.44 20.72C264.44 19.53 265.23 18.53 266.6 18.53C268.01 18.53 268.75 19.53 268.75 20.72L268.75 21.26C268.75 22.45 267.98 23.44 266.6 23.44ZM262.4 25.62C262.4 27.64 260.93 29.15 258.73 29.14C256.77 29.12 254.84 27.93 254.84 24.19C254.84 20.71 256.39 18.67 258.83 18.67C260.76 18.67 262.08 19.91 262.3 21.56L260.49 21.56C260.3 20.78 259.71 20.27 258.83 20.27C257.42 20.27 256.63 21.57 256.63 23.71L256.7 23.71C257.19 22.84 258.15 22.31 259.25 22.31C261.03 22.31 262.4 23.7 262.4 25.62ZM249.19 29L247.27 29L251.6 20.42L251.6 20.35L246.58 20.35L246.58 18.81L253.51 18.81L253.51 20.39L249.19 29ZM266.25 29L265 29L272 18.81L273.25 18.81L266.25 29ZM266.6 19.66C265.97 19.66 265.75 20.2 265.75 20.72L265.75 21.26C265.75 21.79 265.96 22.31 266.6 22.31C267.24 22.31 267.44 21.79 267.44 21.26L267.44 20.72C267.44 20.19 267.26 19.66 266.6 19.66ZM256.83 25.68C256.83 26.74 257.63 27.64 258.72 27.64C259.79 27.64 260.61 26.78 260.61 25.66C260.61 24.57 259.82 23.71 258.74 23.71C257.66 23.71 256.84 24.61 256.83 25.68ZM271.77 29.28C270.37 29.28 269.62 28.27 269.62 27.08L269.62 26.55C269.62 25.37 270.39 24.36 271.77 24.36C273.18 24.36 273.92 25.35 273.92 26.55L273.92 27.08C273.92 28.27 273.16 29.28 271.77 29.28ZM271.77 25.49C271.14 25.49 270.91 26.02 270.91 26.55L270.91 27.08C270.91 27.61 271.13 28.13 271.77 28.13C272.4 28.13 272.62 27.61 272.62 27.08L272.62 26.55C272.62 26.02 272.42 25.49 271.77 25.49Z" fill="#202021" fill-opacity="1.000000" fill-rule="evenodd"/>
		<path id="Deals this year" d="M250.56 41.15C252.32 41.15 253.75 42.21 254.08 44L253.02 44C252.76 42.79 251.72 42.14 250.56 42.14C248.98 42.14 247.73 43.37 247.73 45.63C247.73 47.9 248.98 49.12 250.56 49.12C251.72 49.12 252.76 48.48 253.02 47.27L254.08 47.27C253.75 49.06 252.32 50.12 250.56 50.12C248.33 50.12 246.71 48.39 246.71 45.63C246.71 42.87 248.33 41.15 250.56 41.15ZM268.65 48.48C268.34 49.47 267.37 50.13 266.04 50.13C264.15 50.13 262.99 48.79 262.99 46.77C262.99 44.76 264.17 43.37 265.94 43.37C267.3 43.37 268.75 44.2 268.75 46.64L268.75 47.06L264 47.06C264.05 48.47 264.86 49.23 266.04 49.23C266.83 49.23 267.42 48.89 267.68 48.21L268.65 48.48ZM283.16 46.76C283.16 48.79 281.96 50.13 280.19 50.13C278.42 50.13 277.22 48.79 277.22 46.76C277.22 44.71 278.42 43.37 280.19 43.37C281.96 43.37 283.16 44.71 283.16 46.76ZM296.81 50.13C295.42 50.13 294.39 49.4 294.36 48.33L295.43 48.33C295.48 48.92 296 49.23 296.79 49.23C297.6 49.23 298.26 48.92 298.26 48.17C298.26 47.52 297.75 47.08 296.95 47.08L295.82 47.08L295.82 46.18L296.95 46.18C297.75 46.18 298.12 45.77 298.12 45.22C298.12 44.64 297.69 44.25 296.93 44.25C296.16 44.25 295.6 44.63 295.57 45.17L294.51 45.17C294.54 44.12 295.51 43.37 296.88 43.37C298.26 43.37 299.15 44.15 299.15 45.19C299.15 45.93 298.68 46.38 298.06 46.57L298.06 46.64C298.79 46.69 299.28 47.35 299.28 48.17C299.28 49.37 298.24 50.13 296.81 50.13ZM304.65 49.11C304.45 49.54 303.85 50.15 302.71 50.15C301.47 50.15 300.48 49.41 300.48 48.14C300.48 46.64 301.8 46.37 303.01 46.21C304.21 46.06 304.7 46.1 304.7 45.62L304.7 45.58C304.7 44.74 304.25 44.25 303.32 44.25C302.36 44.25 301.84 44.76 301.62 45.24L300.66 44.9C301.18 43.71 302.3 43.37 303.29 43.37C304.13 43.37 305.71 43.6 305.71 45.68L305.71 50L304.7 50L304.7 49.11L304.65 49.11ZM321.97 46.76C321.97 48.79 320.78 50.13 319.01 50.13C317.23 50.13 316.04 48.79 316.04 46.76C316.04 44.71 317.23 43.37 319.01 43.37C320.78 43.37 321.97 44.71 321.97 46.76ZM256.04 51.87L255.03 51.87L255.03 49.06L255.58 49.06C256.1 48.5 256.34 47.87 256.5 46.04L256.72 43.45L260.88 43.45L260.88 49.06L261.88 49.06L261.88 51.87L260.88 51.87L260.88 50L256.04 50L256.04 51.87ZM270.13 50L269.79 50L269.79 49.06L270.03 49.06C270.81 49.06 271.04 48.54 271.12 46.35L271.24 43.45L275.6 43.45L275.6 50L274.6 50L274.6 44.39L272.2 44.39L272.09 46.72C272 48.87 271.58 50 270.13 50ZM285.78 50L284.78 50L284.78 43.45L285.78 43.45L285.78 46.29L286.45 46.29L288.8 43.45L290.09 43.45L287.45 46.6L290.13 50L288.83 50L286.69 47.23L285.78 47.23L285.78 50ZM311.1 43.45L315.14 43.45L315.14 44.39L312.1 44.39L312.1 50L311.1 50L311.1 43.45ZM323.9 51.87L322.89 51.87L322.89 49.06L323.44 49.06C323.97 48.5 324.2 47.87 324.36 46.04L324.58 43.45L328.74 43.45L328.74 49.06L329.75 49.06L329.75 51.87L328.74 51.87L328.74 50L323.9 50L323.9 51.87ZM265.94 44.27C264.79 44.27 264.07 45.18 264 46.2L267.73 46.2C267.73 45.08 267.03 44.27 265.94 44.27ZM278.23 46.76C278.23 48.07 278.84 49.23 280.19 49.23C281.54 49.23 282.15 48.07 282.15 46.76C282.15 45.45 281.54 44.27 280.19 44.27C278.84 44.27 278.23 45.45 278.23 46.76ZM317.05 46.76C317.05 48.07 317.66 49.23 319.01 49.23C320.35 49.23 320.97 48.07 320.97 46.76C320.97 45.45 320.35 44.27 319.01 44.27C317.66 44.27 317.05 45.45 317.05 46.76ZM257.48 46.04C257.34 47.41 257.18 48.45 256.72 49.06L259.87 49.06L259.87 44.39L257.66 44.39L257.48 46.04ZM325.35 46.04C325.21 47.41 325.04 48.45 324.58 49.06L327.73 49.06L327.73 44.39L325.52 44.39L325.35 46.04ZM301.48 48.19C301.48 48.89 302.06 49.25 302.86 49.25C304.06 49.25 304.7 48.45 304.7 47.62L304.7 46.71C304.53 46.91 303.39 47.03 302.97 47.08C302.18 47.18 301.48 47.42 301.48 48.19Z" fill="#696974" fill-opacity="1.000000" fill-rule="evenodd"/>
	</g>
</svg>
