<svg width="171.720703" height="44.519531" viewBox="0 0 171.721 44.5195" fill="none" xmlns="http://www.w3.org/2000/svg" xmlns:xlink="http://www.w3.org/1999/xlink">
	<desc>
			Created with Pixso.
	</desc>
	<defs/>
	<rect id="active state" rx="9.539995" width="171.719894" height="44.519970" fill="#2D323D" fill-opacity="1.000000"/>
	<path id="Menu Item" d="M55.42 24.71C55.43 26.29 53.94 27.43 51.86 27.43C49.83 27.43 48.39 26.31 48.35 24.69L50.32 24.69C50.36 25.37 51 25.82 51.87 25.82C52.76 25.82 53.4 25.31 53.39 24.58C53.4 23.83 52.74 23.31 51.69 23.31L50.83 23.31L50.83 21.87L51.69 21.87C52.58 21.87 53.2 21.38 53.2 20.65C53.2 19.95 52.67 19.48 51.88 19.48C51.08 19.48 50.44 19.93 50.41 20.64L48.54 20.64C48.57 19.04 49.99 17.93 51.89 17.93C53.81 17.93 55.09 19.08 55.08 20.54C55.09 21.57 54.37 22.31 53.34 22.49L53.34 22.56C54.7 22.73 55.43 23.56 55.42 24.71ZM60.86 26.34C60.52 26.99 59.86 27.44 58.83 27.44C57.5 27.44 56.53 26.74 56.53 25.37C56.53 23.82 57.76 23.36 59.13 23.23C60.34 23.11 60.81 23.05 60.81 22.61L60.81 22.58C60.81 22.01 60.44 21.68 59.78 21.68C59.09 21.68 58.68 22.02 58.55 22.48L56.77 22.34C57.04 21.07 58.13 20.28 59.79 20.28C61.34 20.28 62.74 20.97 62.74 22.63L62.74 27.31L60.91 27.31L60.91 26.34L60.86 26.34ZM75.68 26.34C75.35 26.99 74.69 27.44 73.66 27.44C72.33 27.44 71.36 26.74 71.36 25.37C71.36 23.82 72.59 23.36 73.96 23.23C75.17 23.11 75.64 23.05 75.64 22.61L75.64 22.58C75.64 22.01 75.27 21.68 74.61 21.68C73.92 21.68 73.51 22.02 73.38 22.48L71.6 22.34C71.87 21.07 72.96 20.28 74.62 20.28C76.17 20.28 77.57 20.97 77.57 22.63L77.57 27.31L75.74 27.31L75.74 26.34L75.68 26.34ZM81.64 27.44C79.98 27.44 78.75 26.7 78.7 25.34L80.57 25.34C80.59 25.8 81.02 26.08 81.63 26.08C82.26 26.08 82.75 25.78 82.75 25.23C82.75 24.73 82.35 24.39 81.74 24.39L80.75 24.39L80.75 23.13L81.74 23.13C82.34 23.13 82.67 22.82 82.67 22.4C82.67 21.94 82.32 21.62 81.75 21.62C81.17 21.62 80.76 21.9 80.75 22.31L78.89 22.31C78.9 21.06 80.11 20.28 81.66 20.28C83.36 20.28 84.41 21.02 84.41 22.23C84.41 22.97 83.9 23.48 83.03 23.68L83.03 23.76C83.89 23.81 84.58 24.41 84.58 25.38C84.58 26.67 83.35 27.44 81.64 27.44ZM66.16 27.31L64.23 27.31L64.23 20.37L66.16 20.37L66.16 23.06L66.7 23.06L68.58 20.37L70.84 20.37L68.39 23.81L70.87 27.31L68.58 27.31L66.87 24.84L66.16 24.84L66.16 27.31ZM87.6 20.37L87.6 22.5L89.04 22.5C90.88 22.5 91.96 23.45 91.96 24.91C91.96 26.34 90.88 27.31 89.04 27.31L85.76 27.31L85.76 20.37L87.6 20.37ZM94.63 27.31L92.71 27.31L92.71 20.37L94.63 20.37L94.63 27.31ZM89.04 24.01L87.6 24.01L87.6 25.79L89.04 25.79C89.68 25.79 90.14 25.43 90.15 24.92C90.14 24.39 89.68 24.01 89.04 24.01ZM58.36 25.31C58.36 25.83 58.79 26.11 59.38 26.11C60.23 26.11 60.82 25.55 60.82 24.82L60.82 24.09C60.59 24.24 59.91 24.34 59.49 24.4C58.81 24.5 58.36 24.76 58.36 25.31ZM73.19 25.31C73.19 25.83 73.62 26.11 74.21 26.11C75.05 26.11 75.65 25.55 75.65 24.82L75.65 24.09C75.42 24.24 74.74 24.34 74.32 24.4C73.64 24.5 73.19 24.76 73.19 25.31Z" fill="#FFFFFF" fill-opacity="1.000000" fill-rule="evenodd"/>
	<path id="Path_33955" d="M22.78 30.21C20.34 30.21 18.48 29.33 19 25.78L19.62 20.98C19.95 19.21 21.08 18.53 22.07 18.53L30.16 18.53C31.16 18.53 32.23 19.26 32.61 20.98L33.23 25.78C33.68 28.92 31.86 30.21 29.42 30.21L22.78 30.21Z" stroke="#FFFFFF" stroke-opacity="1.000000" stroke-width="1.192499" stroke-linejoin="round"/>
	<g style="mix-blend-mode:normal">
		<path id="Path_33956" d="M29.53 18.36C29.53 16.46 27.99 14.92 26.09 14.92C25.18 14.92 24.3 15.28 23.66 15.92C23.01 16.57 22.64 17.45 22.64 18.36L22.64 18.36" stroke="#FFFFFF" stroke-opacity="1.000000" stroke-width="1.192499" stroke-linejoin="round" stroke-linecap="round"/>
	</g>
	<path id="Line_192" d="M28.45 21.94L28.42 21.94" stroke="#FFFFFF" stroke-opacity="1.000000" stroke-width="1.192499" stroke-linejoin="round" stroke-linecap="round"/>
	<path id="Line_193" d="M23.82 21.94L23.78 21.94" stroke="#FFFFFF" stroke-opacity="1.000000" stroke-width="1.192499" stroke-linejoin="round" stroke-linecap="round"/>
	<path id="Path" d="M144.68 19.08L147.86 22.25L144.68 25.43" stroke="#FFFFFF" stroke-opacity="1.000000" stroke-width="1.589999" stroke-linejoin="round" stroke-linecap="round"/>
</svg>
